<mxfile host="65bd71144e">
    <diagram id="sSUc3hXyAG1-pLDuiN1y" name="Page-1">
        <mxGraphModel dx="2290" dy="-7461" grid="0" gridSize="10" guides="1" tooltips="1" connect="1" arrows="1" fold="1" page="0" pageScale="1" pageWidth="827" pageHeight="1169" math="0" shadow="0">
            <root>
                <mxCell id="0"/>
                <mxCell id="1" parent="0"/>
                <mxCell id="2" value="" style="verticalLabelPosition=bottom;verticalAlign=top;html=1;shape=mxgraph.basic.arc;startAngle=0.15685980648018583;endAngle=0.8435835209054994;strokeWidth=9;" parent="1" vertex="1">
                    <mxGeometry x="1040" y="9160" width="320" height="320" as="geometry"/>
                </mxCell>
                <mxCell id="3" value="" style="verticalLabelPosition=bottom;verticalAlign=top;html=1;shape=mxgraph.basic.arc;startAngle=0.9583196656031661;endAngle=0.04209463347309055;strokeWidth=9;" parent="1" vertex="1">
                    <mxGeometry x="1040" y="9160" width="320" height="320" as="geometry"/>
                </mxCell>
                <mxCell id="5" value="" style="endArrow=none;html=1;strokeWidth=9;" parent="1" edge="1">
                    <mxGeometry x="3474" y="10151" width="175" height="175" as="geometry">
                        <mxPoint x="1332" y="9325" as="sourcePoint"/>
                        <mxPoint x="1380" y="9255" as="targetPoint"/>
                    </mxGeometry>
                </mxCell>
                <mxCell id="6" value="" style="endArrow=none;html=1;strokeWidth=9;" parent="1" edge="1">
                    <mxGeometry x="3484" y="10150" width="175" height="175" as="geometry">
                        <mxPoint x="1391" y="9314" as="sourcePoint"/>
                        <mxPoint x="1321" y="9266" as="targetPoint"/>
                    </mxGeometry>
                </mxCell>
                <mxCell id="7" value="" style="endArrow=none;html=1;strokeWidth=9;" parent="1" edge="1">
                    <mxGeometry x="3496" y="10158" width="175" height="175" as="geometry">
                        <mxPoint x="1395" y="9283" as="sourcePoint"/>
                        <mxPoint x="1317" y="9297" as="targetPoint"/>
                    </mxGeometry>
                </mxCell>
                <mxCell id="8" value="" style="endArrow=none;html=1;strokeWidth=9;" parent="1" edge="1">
                    <mxGeometry x="1934" y="11623" width="175" height="175" as="geometry">
                        <mxPoint x="1289" y="9414" as="sourcePoint"/>
                        <mxPoint x="1373" y="9406" as="targetPoint"/>
                    </mxGeometry>
                </mxCell>
                <mxCell id="9" value="" style="endArrow=none;html=1;strokeWidth=9;" parent="1" edge="1">
                    <mxGeometry x="1942" y="11629" width="175" height="175" as="geometry">
                        <mxPoint x="1335" y="9452" as="sourcePoint"/>
                        <mxPoint x="1327" y="9368" as="targetPoint"/>
                    </mxGeometry>
                </mxCell>
                <mxCell id="10" value="" style="endArrow=none;html=1;strokeWidth=9;" parent="1" edge="1">
                    <mxGeometry x="2960" y="10550" width="175" height="175" as="geometry">
                        <mxPoint x="1010" y="9350" as="sourcePoint"/>
                        <mxPoint x="1070" y="9290" as="targetPoint"/>
                    </mxGeometry>
                </mxCell>
                <mxCell id="11" value="" style="endArrow=none;html=1;strokeWidth=9;" parent="1" edge="1">
                    <mxGeometry x="2970" y="10550" width="175" height="175" as="geometry">
                        <mxPoint x="1070" y="9350" as="sourcePoint"/>
                        <mxPoint x="1010" y="9290" as="targetPoint"/>
                    </mxGeometry>
                </mxCell>
                <mxCell id="12" value="" style="group;rotation=45;strokeWidth=9;" parent="1" connectable="0" vertex="1">
                    <mxGeometry x="1277" y="9179" width="100" height="40" as="geometry"/>
                </mxCell>
                <mxCell id="25" value="" style="group;rotation=35;strokeWidth=9;" parent="1" vertex="1" connectable="0">
                    <mxGeometry x="1276" y="9151" width="88" height="3" as="geometry"/>
                </mxCell>
                <mxCell id="26" value="" style="curved=1;endArrow=none;html=1;endFill=0;strokeWidth=9;" parent="25" edge="1">
                    <mxGeometry width="50" height="50" relative="1" as="geometry">
                        <mxPoint x="10" y="49" as="sourcePoint"/>
                        <mxPoint x="35" y="66" as="targetPoint"/>
                        <Array as="points">
                            <mxPoint x="54" y="10"/>
                        </Array>
                    </mxGeometry>
                </mxCell>
                <mxCell id="27" value="" style="curved=1;endArrow=none;html=1;endFill=0;strokeWidth=9;" parent="25" edge="1">
                    <mxGeometry width="50" height="50" relative="1" as="geometry">
                        <mxPoint x="-13" y="33" as="sourcePoint"/>
                        <mxPoint x="10" y="49" as="targetPoint"/>
                        <Array as="points">
                            <mxPoint x="30" y="-7"/>
                        </Array>
                    </mxGeometry>
                </mxCell>
                <mxCell id="28" value="" style="curved=1;endArrow=none;html=1;endFill=0;strokeWidth=9;" parent="25" edge="1">
                    <mxGeometry width="50" height="50" relative="1" as="geometry">
                        <mxPoint x="-36" y="15" as="sourcePoint"/>
                        <mxPoint x="-13" y="33" as="targetPoint"/>
                        <Array as="points">
                            <mxPoint x="8" y="-23"/>
                        </Array>
                    </mxGeometry>
                </mxCell>
                <mxCell id="29" value="" style="curved=1;endArrow=none;html=1;endFill=0;strokeWidth=9;" parent="25" edge="1">
                    <mxGeometry width="50" height="50" relative="1" as="geometry">
                        <mxPoint x="35" y="66" as="sourcePoint"/>
                        <mxPoint x="57" y="82" as="targetPoint"/>
                        <Array as="points">
                            <mxPoint x="81" y="26"/>
                        </Array>
                    </mxGeometry>
                </mxCell>
                <mxCell id="30" value="" style="group;rotation=-35;strokeWidth=9;" parent="1" vertex="1" connectable="0">
                    <mxGeometry x="1036" y="9150" width="88" height="3" as="geometry"/>
                </mxCell>
                <mxCell id="31" value="" style="curved=1;endArrow=none;html=1;endFill=0;strokeWidth=9;" parent="30" edge="1">
                    <mxGeometry width="50" height="50" relative="1" as="geometry">
                        <mxPoint x="76" y="49" as="sourcePoint"/>
                        <mxPoint x="101" y="32" as="targetPoint"/>
                        <Array as="points">
                            <mxPoint x="56" y="-4"/>
                        </Array>
                    </mxGeometry>
                </mxCell>
                <mxCell id="32" value="" style="curved=1;endArrow=none;html=1;endFill=0;strokeWidth=9;" parent="30" edge="1">
                    <mxGeometry width="50" height="50" relative="1" as="geometry">
                        <mxPoint x="53" y="67" as="sourcePoint"/>
                        <mxPoint x="76" y="49" as="targetPoint"/>
                        <Array as="points">
                            <mxPoint x="31" y="11"/>
                        </Array>
                    </mxGeometry>
                </mxCell>
                <mxCell id="33" value="" style="curved=1;endArrow=none;html=1;endFill=0;strokeWidth=9;" parent="30" edge="1">
                    <mxGeometry width="50" height="50" relative="1" as="geometry">
                        <mxPoint x="30" y="82" as="sourcePoint"/>
                        <mxPoint x="53" y="67" as="targetPoint"/>
                        <Array as="points">
                            <mxPoint x="8" y="27"/>
                        </Array>
                    </mxGeometry>
                </mxCell>
                <mxCell id="34" value="" style="curved=1;endArrow=none;html=1;endFill=0;strokeWidth=9;" parent="30" edge="1">
                    <mxGeometry width="50" height="50" relative="1" as="geometry">
                        <mxPoint x="101" y="32" as="sourcePoint"/>
                        <mxPoint x="124" y="17" as="targetPoint"/>
                        <Array as="points">
                            <mxPoint x="79" y="-24"/>
                        </Array>
                    </mxGeometry>
                </mxCell>
                <mxCell id="35" value="" style="endArrow=none;html=1;strokeWidth=9;entryX=0.5;entryY=1;entryDx=0;entryDy=0;" parent="1" target="65" edge="1">
                    <mxGeometry width="50" height="50" relative="1" as="geometry">
                        <mxPoint x="1200" y="9160" as="sourcePoint"/>
                        <mxPoint x="1200" y="8960" as="targetPoint"/>
                    </mxGeometry>
                </mxCell>
                <mxCell id="36" value="" style="endArrow=none;html=1;strokeWidth=9;exitX=0;exitY=0.5;exitDx=0;exitDy=0;entryX=0.5;entryY=1.007;entryDx=0;entryDy=0;entryPerimeter=0;" parent="1" source="74" target="2" edge="1">
                    <mxGeometry width="50" height="50" relative="1" as="geometry">
                        <mxPoint x="1199.23" y="9680" as="sourcePoint"/>
                        <mxPoint x="1210" y="9520" as="targetPoint"/>
                    </mxGeometry>
                </mxCell>
                <mxCell id="61" style="edgeStyle=none;html=1;exitX=0;exitY=0.5;exitDx=0;exitDy=0;strokeWidth=9;endArrow=none;endFill=0;entryX=1;entryY=1;entryDx=0;entryDy=0;entryPerimeter=0;startArrow=none;" parent="1" source="107" target="106" edge="1">
                    <mxGeometry relative="1" as="geometry">
                        <mxPoint x="1200" y="8957.703703703704" as="targetPoint"/>
                    </mxGeometry>
                </mxCell>
                <mxCell id="37" value="" style="pointerEvents=1;verticalLabelPosition=bottom;shadow=0;dashed=0;align=center;html=1;verticalAlign=top;shape=mxgraph.electrical.inductors.inductor_3;strokeColor=default;strokeWidth=9;fillColor=none;" parent="1" vertex="1">
                    <mxGeometry x="1280" y="8920" width="480" height="38" as="geometry"/>
                </mxCell>
                <mxCell id="65" value="" style="rounded=0;whiteSpace=wrap;html=1;strokeColor=default;strokeWidth=9;fillColor=none;" parent="1" vertex="1">
                    <mxGeometry x="1160" y="8600" width="80" height="240" as="geometry"/>
                </mxCell>
                <mxCell id="67" value="" style="endArrow=none;html=1;strokeWidth=9;" parent="1" edge="1">
                    <mxGeometry width="50" height="50" relative="1" as="geometry">
                        <mxPoint x="1200" y="8600" as="sourcePoint"/>
                        <mxPoint x="1200" y="8480" as="targetPoint"/>
                    </mxGeometry>
                </mxCell>
                <mxCell id="69" value="" style="endArrow=none;html=1;strokeWidth=9;startArrow=none;" parent="1" edge="1">
                    <mxGeometry width="50" height="50" relative="1" as="geometry">
                        <mxPoint x="1205" y="8480" as="sourcePoint"/>
                        <mxPoint x="1240" y="8480" as="targetPoint"/>
                    </mxGeometry>
                </mxCell>
                <mxCell id="73" value="" style="edgeStyle=none;html=1;endArrow=none;endFill=0;strokeWidth=9;exitX=0.5;exitY=1;exitDx=0;exitDy=0;" parent="1" target="65" edge="1">
                    <mxGeometry relative="1" as="geometry">
                        <mxPoint x="1200" y="8485" as="sourcePoint"/>
                    </mxGeometry>
                </mxCell>
                <mxCell id="72" value="" style="endArrow=none;html=1;strokeWidth=9;startArrow=none;" parent="1" source="145" edge="1">
                    <mxGeometry width="50" height="50" relative="1" as="geometry">
                        <mxPoint x="1160" y="8480" as="sourcePoint"/>
                        <mxPoint x="1195" y="8480" as="targetPoint"/>
                    </mxGeometry>
                </mxCell>
                <mxCell id="74" value="" style="triangle;whiteSpace=wrap;html=1;strokeColor=default;strokeWidth=9;fillColor=none;rotation=90;" parent="1" vertex="1">
                    <mxGeometry x="1170" y="9660" width="60" height="100" as="geometry"/>
                </mxCell>
                <mxCell id="97" value="" style="rounded=0;whiteSpace=wrap;html=1;strokeColor=default;strokeWidth=9;fillColor=none;" parent="1" vertex="1">
                    <mxGeometry x="1800" y="8600" width="80" height="240" as="geometry"/>
                </mxCell>
                <mxCell id="98" value="" style="endArrow=none;html=1;strokeWidth=9;" parent="1" edge="1">
                    <mxGeometry width="50" height="50" relative="1" as="geometry">
                        <mxPoint x="1840" y="8600" as="sourcePoint"/>
                        <mxPoint x="1840" y="8480" as="targetPoint"/>
                    </mxGeometry>
                </mxCell>
                <mxCell id="99" value="" style="endArrow=none;html=1;strokeWidth=9;startArrow=none;" parent="1" edge="1">
                    <mxGeometry width="50" height="50" relative="1" as="geometry">
                        <mxPoint x="1845" y="8480" as="sourcePoint"/>
                        <mxPoint x="1880" y="8480" as="targetPoint"/>
                    </mxGeometry>
                </mxCell>
                <mxCell id="100" value="" style="edgeStyle=none;html=1;endArrow=none;endFill=0;strokeWidth=9;exitX=0.5;exitY=1;exitDx=0;exitDy=0;" parent="1" target="97" edge="1">
                    <mxGeometry relative="1" as="geometry">
                        <mxPoint x="1840" y="8485" as="sourcePoint"/>
                    </mxGeometry>
                </mxCell>
                <mxCell id="102" value="" style="endArrow=none;html=1;strokeWidth=9;startArrow=none;" parent="1" source="149" edge="1">
                    <mxGeometry width="50" height="50" relative="1" as="geometry">
                        <mxPoint x="1800" y="8480" as="sourcePoint"/>
                        <mxPoint x="1835" y="8480" as="targetPoint"/>
                    </mxGeometry>
                </mxCell>
                <mxCell id="105" value="" style="pointerEvents=1;verticalLabelPosition=bottom;shadow=0;dashed=0;align=center;html=1;verticalAlign=top;shape=mxgraph.electrical.inductors.inductor_3;strokeColor=default;strokeWidth=9;fillColor=none;" parent="1" vertex="1">
                    <mxGeometry x="1917" y="8920" width="480" height="38" as="geometry"/>
                </mxCell>
                <mxCell id="106" value="" style="pointerEvents=1;verticalLabelPosition=bottom;shadow=0;dashed=0;align=center;html=1;verticalAlign=top;shape=mxgraph.electrical.inductors.inductor_3;strokeColor=default;strokeWidth=9;fillColor=none;" parent="1" vertex="1">
                    <mxGeometry x="640" y="8920" width="480" height="38" as="geometry"/>
                </mxCell>
                <mxCell id="107" value="" style="ellipse;whiteSpace=wrap;html=1;aspect=fixed;strokeColor=default;strokeWidth=9;fillColor=#000000;" parent="1" vertex="1">
                    <mxGeometry x="1190" y="8948" width="20" height="20" as="geometry"/>
                </mxCell>
                <mxCell id="110" value="" style="edgeStyle=none;html=1;exitX=0;exitY=1;exitDx=0;exitDy=0;exitPerimeter=0;strokeWidth=9;endArrow=none;endFill=0;entryX=1;entryY=0.5;entryDx=0;entryDy=0;" parent="1" source="37" target="107" edge="1">
                    <mxGeometry relative="1" as="geometry">
                        <mxPoint x="1120" y="8958" as="targetPoint"/>
                        <mxPoint x="1280" y="8958" as="sourcePoint"/>
                    </mxGeometry>
                </mxCell>
                <mxCell id="113" value="" style="ellipse;whiteSpace=wrap;html=1;aspect=fixed;strokeColor=default;strokeWidth=9;fillColor=#000000;" parent="1" vertex="1">
                    <mxGeometry x="1190" y="9150" width="20" height="20" as="geometry"/>
                </mxCell>
                <mxCell id="115" value="" style="ellipse;whiteSpace=wrap;html=1;aspect=fixed;strokeColor=default;strokeWidth=9;fillColor=#000000;" parent="1" vertex="1">
                    <mxGeometry x="1190" y="9470" width="20" height="20" as="geometry"/>
                </mxCell>
                <mxCell id="117" value="" style="verticalLabelPosition=bottom;verticalAlign=top;html=1;shape=mxgraph.basic.arc;startAngle=0.15685980648018583;endAngle=0.8435835209054994;strokeWidth=9;" parent="1" vertex="1">
                    <mxGeometry x="1677.5" y="9160" width="320" height="320" as="geometry"/>
                </mxCell>
                <mxCell id="118" value="" style="verticalLabelPosition=bottom;verticalAlign=top;html=1;shape=mxgraph.basic.arc;startAngle=0.9583196656031661;endAngle=0.04209463347309055;strokeWidth=9;" parent="1" vertex="1">
                    <mxGeometry x="1677.5" y="9160" width="320" height="320" as="geometry"/>
                </mxCell>
                <mxCell id="119" value="" style="endArrow=none;html=1;strokeWidth=9;" parent="1" edge="1">
                    <mxGeometry x="4111.5" y="10151" width="175" height="175" as="geometry">
                        <mxPoint x="1969.5" y="9325" as="sourcePoint"/>
                        <mxPoint x="2017.5" y="9255" as="targetPoint"/>
                    </mxGeometry>
                </mxCell>
                <mxCell id="120" value="" style="endArrow=none;html=1;strokeWidth=9;" parent="1" edge="1">
                    <mxGeometry x="4121.5" y="10150" width="175" height="175" as="geometry">
                        <mxPoint x="2028.5" y="9314" as="sourcePoint"/>
                        <mxPoint x="1958.5" y="9266" as="targetPoint"/>
                    </mxGeometry>
                </mxCell>
                <mxCell id="121" value="" style="endArrow=none;html=1;strokeWidth=9;" parent="1" edge="1">
                    <mxGeometry x="4133.5" y="10158" width="175" height="175" as="geometry">
                        <mxPoint x="2032.5" y="9283" as="sourcePoint"/>
                        <mxPoint x="1954.5" y="9297" as="targetPoint"/>
                    </mxGeometry>
                </mxCell>
                <mxCell id="122" value="" style="endArrow=none;html=1;strokeWidth=9;" parent="1" edge="1">
                    <mxGeometry x="2571.5" y="11623" width="175" height="175" as="geometry">
                        <mxPoint x="1926.5" y="9414" as="sourcePoint"/>
                        <mxPoint x="2010.5" y="9406" as="targetPoint"/>
                    </mxGeometry>
                </mxCell>
                <mxCell id="123" value="" style="endArrow=none;html=1;strokeWidth=9;" parent="1" edge="1">
                    <mxGeometry x="2579.5" y="11629" width="175" height="175" as="geometry">
                        <mxPoint x="1972.5" y="9452" as="sourcePoint"/>
                        <mxPoint x="1964.5" y="9368" as="targetPoint"/>
                    </mxGeometry>
                </mxCell>
                <mxCell id="124" value="" style="endArrow=none;html=1;strokeWidth=9;" parent="1" edge="1">
                    <mxGeometry x="3597.5" y="10550" width="175" height="175" as="geometry">
                        <mxPoint x="1647.5" y="9350" as="sourcePoint"/>
                        <mxPoint x="1707.5" y="9290" as="targetPoint"/>
                    </mxGeometry>
                </mxCell>
                <mxCell id="125" value="" style="endArrow=none;html=1;strokeWidth=9;" parent="1" edge="1">
                    <mxGeometry x="3607.5" y="10550" width="175" height="175" as="geometry">
                        <mxPoint x="1707.5" y="9350" as="sourcePoint"/>
                        <mxPoint x="1647.5" y="9290" as="targetPoint"/>
                    </mxGeometry>
                </mxCell>
                <mxCell id="126" value="" style="group;rotation=45;strokeWidth=9;" parent="1" connectable="0" vertex="1">
                    <mxGeometry x="1914.5" y="9179" width="100" height="40" as="geometry"/>
                </mxCell>
                <mxCell id="127" value="" style="group;rotation=35;strokeWidth=9;" parent="1" vertex="1" connectable="0">
                    <mxGeometry x="1913.5" y="9151" width="88" height="3" as="geometry"/>
                </mxCell>
                <mxCell id="128" value="" style="curved=1;endArrow=none;html=1;endFill=0;strokeWidth=9;" parent="127" edge="1">
                    <mxGeometry width="50" height="50" relative="1" as="geometry">
                        <mxPoint x="10" y="49" as="sourcePoint"/>
                        <mxPoint x="35" y="66" as="targetPoint"/>
                        <Array as="points">
                            <mxPoint x="54" y="10"/>
                        </Array>
                    </mxGeometry>
                </mxCell>
                <mxCell id="129" value="" style="curved=1;endArrow=none;html=1;endFill=0;strokeWidth=9;" parent="127" edge="1">
                    <mxGeometry width="50" height="50" relative="1" as="geometry">
                        <mxPoint x="-13" y="33" as="sourcePoint"/>
                        <mxPoint x="10" y="49" as="targetPoint"/>
                        <Array as="points">
                            <mxPoint x="30" y="-7"/>
                        </Array>
                    </mxGeometry>
                </mxCell>
                <mxCell id="130" value="" style="curved=1;endArrow=none;html=1;endFill=0;strokeWidth=9;" parent="127" edge="1">
                    <mxGeometry width="50" height="50" relative="1" as="geometry">
                        <mxPoint x="-36" y="15" as="sourcePoint"/>
                        <mxPoint x="-13" y="33" as="targetPoint"/>
                        <Array as="points">
                            <mxPoint x="8" y="-23"/>
                        </Array>
                    </mxGeometry>
                </mxCell>
                <mxCell id="131" value="" style="curved=1;endArrow=none;html=1;endFill=0;strokeWidth=9;" parent="127" edge="1">
                    <mxGeometry width="50" height="50" relative="1" as="geometry">
                        <mxPoint x="35" y="66" as="sourcePoint"/>
                        <mxPoint x="57" y="82" as="targetPoint"/>
                        <Array as="points">
                            <mxPoint x="81" y="26"/>
                        </Array>
                    </mxGeometry>
                </mxCell>
                <mxCell id="132" value="" style="group;rotation=-35;strokeWidth=9;" parent="1" vertex="1" connectable="0">
                    <mxGeometry x="1673.5" y="9150" width="88" height="3" as="geometry"/>
                </mxCell>
                <mxCell id="133" value="" style="curved=1;endArrow=none;html=1;endFill=0;strokeWidth=9;" parent="132" edge="1">
                    <mxGeometry width="50" height="50" relative="1" as="geometry">
                        <mxPoint x="76" y="49" as="sourcePoint"/>
                        <mxPoint x="101" y="32" as="targetPoint"/>
                        <Array as="points">
                            <mxPoint x="56" y="-4"/>
                        </Array>
                    </mxGeometry>
                </mxCell>
                <mxCell id="134" value="" style="curved=1;endArrow=none;html=1;endFill=0;strokeWidth=9;" parent="132" edge="1">
                    <mxGeometry width="50" height="50" relative="1" as="geometry">
                        <mxPoint x="53" y="67" as="sourcePoint"/>
                        <mxPoint x="76" y="49" as="targetPoint"/>
                        <Array as="points">
                            <mxPoint x="31" y="11"/>
                        </Array>
                    </mxGeometry>
                </mxCell>
                <mxCell id="135" value="" style="curved=1;endArrow=none;html=1;endFill=0;strokeWidth=9;" parent="132" edge="1">
                    <mxGeometry width="50" height="50" relative="1" as="geometry">
                        <mxPoint x="30" y="82" as="sourcePoint"/>
                        <mxPoint x="53" y="67" as="targetPoint"/>
                        <Array as="points">
                            <mxPoint x="8" y="27"/>
                        </Array>
                    </mxGeometry>
                </mxCell>
                <mxCell id="136" value="" style="curved=1;endArrow=none;html=1;endFill=0;strokeWidth=9;" parent="132" edge="1">
                    <mxGeometry width="50" height="50" relative="1" as="geometry">
                        <mxPoint x="101" y="32" as="sourcePoint"/>
                        <mxPoint x="124" y="17" as="targetPoint"/>
                        <Array as="points">
                            <mxPoint x="79" y="-24"/>
                        </Array>
                    </mxGeometry>
                </mxCell>
                <mxCell id="137" value="" style="endArrow=none;html=1;strokeWidth=9;entryX=0.5;entryY=1;entryDx=0;entryDy=0;" parent="1" edge="1">
                    <mxGeometry width="50" height="50" relative="1" as="geometry">
                        <mxPoint x="1837.5" y="9160" as="sourcePoint"/>
                        <mxPoint x="1837.5" y="8840" as="targetPoint"/>
                    </mxGeometry>
                </mxCell>
                <mxCell id="138" value="" style="endArrow=none;html=1;strokeWidth=9;exitX=0;exitY=0.5;exitDx=0;exitDy=0;entryX=0.5;entryY=1.007;entryDx=0;entryDy=0;entryPerimeter=0;" parent="1" source="140" target="117" edge="1">
                    <mxGeometry width="50" height="50" relative="1" as="geometry">
                        <mxPoint x="1836.73" y="9680" as="sourcePoint"/>
                        <mxPoint x="1847.5" y="9520" as="targetPoint"/>
                    </mxGeometry>
                </mxCell>
                <mxCell id="139" style="edgeStyle=none;html=1;exitX=0;exitY=0.5;exitDx=0;exitDy=0;strokeWidth=9;endArrow=none;endFill=0;entryX=1;entryY=1;entryDx=0;entryDy=0;entryPerimeter=0;startArrow=none;" parent="1" source="141" edge="1">
                    <mxGeometry relative="1" as="geometry">
                        <mxPoint x="1757.5" y="8958" as="targetPoint"/>
                    </mxGeometry>
                </mxCell>
                <mxCell id="140" value="" style="triangle;whiteSpace=wrap;html=1;strokeColor=default;strokeWidth=9;fillColor=none;rotation=90;" parent="1" vertex="1">
                    <mxGeometry x="1807.5" y="9660" width="60" height="100" as="geometry"/>
                </mxCell>
                <mxCell id="141" value="" style="ellipse;whiteSpace=wrap;html=1;aspect=fixed;strokeColor=default;strokeWidth=9;fillColor=#000000;" parent="1" vertex="1">
                    <mxGeometry x="1827.5" y="8948" width="20" height="20" as="geometry"/>
                </mxCell>
                <mxCell id="142" value="" style="edgeStyle=none;html=1;exitX=0;exitY=1;exitDx=0;exitDy=0;exitPerimeter=0;strokeWidth=9;endArrow=none;endFill=0;entryX=1;entryY=0.5;entryDx=0;entryDy=0;" parent="1" target="141" edge="1">
                    <mxGeometry relative="1" as="geometry">
                        <mxPoint x="1757.5" y="8958" as="targetPoint"/>
                        <mxPoint x="1917.5" y="8958" as="sourcePoint"/>
                    </mxGeometry>
                </mxCell>
                <mxCell id="143" value="" style="ellipse;whiteSpace=wrap;html=1;aspect=fixed;strokeColor=default;strokeWidth=9;fillColor=#000000;" parent="1" vertex="1">
                    <mxGeometry x="1827.5" y="9150" width="20" height="20" as="geometry"/>
                </mxCell>
                <mxCell id="144" value="" style="ellipse;whiteSpace=wrap;html=1;aspect=fixed;strokeColor=default;strokeWidth=9;fillColor=#000000;" parent="1" vertex="1">
                    <mxGeometry x="1827.5" y="9470" width="20" height="20" as="geometry"/>
                </mxCell>
                <mxCell id="145" value="" style="ellipse;whiteSpace=wrap;html=1;aspect=fixed;strokeColor=default;strokeWidth=9;fillColor=#000000;" parent="1" vertex="1">
                    <mxGeometry x="1190" y="8470" width="20" height="20" as="geometry"/>
                </mxCell>
                <mxCell id="148" value="" style="endArrow=none;html=1;strokeWidth=9;" parent="1" target="145" edge="1">
                    <mxGeometry width="50" height="50" relative="1" as="geometry">
                        <mxPoint x="1160" y="8480" as="sourcePoint"/>
                        <mxPoint x="1195" y="8480" as="targetPoint"/>
                    </mxGeometry>
                </mxCell>
                <mxCell id="149" value="" style="ellipse;whiteSpace=wrap;html=1;aspect=fixed;strokeColor=default;strokeWidth=9;fillColor=#000000;" parent="1" vertex="1">
                    <mxGeometry x="1830" y="8470" width="20" height="20" as="geometry"/>
                </mxCell>
                <mxCell id="150" value="" style="endArrow=none;html=1;strokeWidth=9;" parent="1" target="149" edge="1">
                    <mxGeometry width="50" height="50" relative="1" as="geometry">
                        <mxPoint x="1800" y="8480" as="sourcePoint"/>
                        <mxPoint x="1835" y="8480" as="targetPoint"/>
                    </mxGeometry>
                </mxCell>
            </root>
        </mxGraphModel>
    </diagram>
</mxfile>